<?xml version="1.0" ?>
<!DOCTYPE svg  PUBLIC '-//W3C//DTD SVG 1.1//EN'  'http://www.w3.org/Graphics/SVG/1.1/DTD/svg11.dtd'>
<!-- Uploaded to: SVG Repo, www.svgrepo.com, Generator: SVG Repo Mixer Tools -->
<svg width="800px" height="800px" viewBox="0 0 32 32" enable-background="new 0 0 32 32" version="1.1" xml:space="preserve" xmlns="http://www.w3.org/2000/svg" xmlns:xlink="http://www.w3.org/1999/xlink">
<g id="Layer_1"/>
<g id="Layer_2">
<g>
<polyline fill="none" points="    2,7 2,6 30,6 30,26 2,26 2,17   " stroke="#000000" stroke-linecap="round" stroke-linejoin="round" stroke-miterlimit="10" stroke-width="2"/>
<line fill="none" stroke="#000000" stroke-linejoin="round" stroke-miterlimit="10" stroke-width="2" x1="7" x2="7" y1="6" y2="10"/>
<line fill="none" stroke="#000000" stroke-linejoin="round" stroke-miterlimit="10" stroke-width="2" x1="7" x2="7" y1="14" y2="26"/>
<circle cx="7" cy="12" fill="none" r="2" stroke="#000000" stroke-linejoin="round" stroke-miterlimit="10" stroke-width="2"/>
<polyline fill="none" points="9,13 12,14     12,10 9,11   " stroke="#000000" stroke-linejoin="round" stroke-miterlimit="10" stroke-width="2"/>
<polyline fill="none" points="5,13 2,14 2,10     5,11   " stroke="#000000" stroke-linejoin="round" stroke-miterlimit="10" stroke-width="2"/>
<line fill="none" stroke="#000000" stroke-linecap="round" stroke-linejoin="round" stroke-miterlimit="10" stroke-width="2" x1="21" x2="21" y1="10" y2="12"/>
<line fill="none" stroke="#000000" stroke-linecap="round" stroke-linejoin="round" stroke-miterlimit="10" stroke-width="2" x1="21" x2="21" y1="20" y2="22"/>
<path d="    M19,20h3c1.1,0,2-0.9,2-2s-0.9-2-2-2h-2c-1.1,0-2-0.9-2-2s0.9-2,2-2h3" fill="none" stroke="#000000" stroke-linecap="round" stroke-linejoin="round" stroke-miterlimit="10" stroke-width="2"/>
</g>
</g>
</svg>