<?xml version="1.0" ?>

<!-- Uploaded to: SVG Repo, www.svgrepo.com, Generator: SVG Repo Mixer Tools -->
<svg fill="#000000" width="800px" height="800px" viewBox="0 0 512 512" version="1.1" xml:space="preserve" xmlns="http://www.w3.org/2000/svg" xmlns:xlink="http://www.w3.org/1999/xlink">

<g id="necklace-jewellery-heart-love-valentine">

<path d="M306.771,252.047l-4.355-24.696c9.351-4.723,15.425-14.397,15.425-25.031v-0.24c0-0.035-0.009-0.071-0.009-0.106   C367.917,178.124,400,127.809,400,72c0-4.418-3.578-8-8-8s-8,3.582-8,8c0,48.836-27.631,92.968-70.96,114.561v0   c-6-8.8-16.88-13.76-28-11.84c-12.64,2.24-21.918,12.798-23.04,25.118c-3.952,0.184-8.049,0.184-12.001,0   c-1.121-12.319-10.4-22.878-23.04-25.118c-1.6-0.32-3.2-0.4-4.8-0.4c-9.36,0-18.08,4.72-23.2,12.24v0   C155.631,164.968,128,120.836,128,72c0-4.418-3.578-8-8-8s-8,3.582-8,8c0,55.809,32.083,106.124,82.169,129.974   c0,0.035-0.009,0.071-0.009,0.106c-0.16,10.714,5.994,20.548,15.425,25.271l-4.355,24.696c-12.078-9.562-29.966-9.552-42.35,1.793   c-12.4,11.36-13.76,30.72-4.16,44.56l26.32,38c5.92,8.56,17.6,10.64,26.08,4.56l37.76-26.64c2.72-2,5.12-4.24,7.12-6.88   c2,2.64,4.4,4.88,7.12,6.88l37.76,26.64c8.48,6.08,20.16,4,26.08-4.56l26.32-38c9.6-13.84,8.24-33.2-4.16-44.56   C336.737,242.495,318.849,242.485,306.771,252.047z M287.76,190.48c0.72-0.08,1.44-0.16,2.16-0.16c5.68,0,10.72,4.08,11.76,9.92   c1.193,6.442-3.154,12.637-9.572,13.888c-0.05,0.008-0.097-0.012-0.147-0.003c-0.043,0.008-0.074,0.038-0.117,0.046   c-6.502,1.023-12.652-3.343-13.764-9.771C276.88,197.84,281.28,191.68,287.76,190.48z M210.32,200.24   c1.12-6.56,7.36-10.88,13.92-9.76c6.48,1.2,10.88,7.36,9.68,13.92c-1.111,6.428-7.262,10.794-13.764,9.771   c-0.043-0.008-0.074-0.038-0.117-0.046c-0.05-0.009-0.097,0.012-0.147,0.004C213.474,212.878,209.127,206.683,210.32,200.24z    M234.48,296.32l-19.84,14.08c-2.72,2-6,3.04-9.28,3.04c-0.88,0-1.84-0.08-2.8-0.24c-4.24-0.8-7.92-3.2-10.4-6.72L178.4,286.4   c-2.56-3.6-1.6-8.56,2-11.12c3.68-2.48,8.64-1.52,11.12,2.08l13.84,20.08l19.84-14.16c3.6-2.56,8.56-1.68,11.12,1.92   C238.88,288.8,238.08,293.76,234.48,296.32z M256,264.8c-8.64-10.32-22.56-14.08-34.96-10.08c-0.015,0.005-0.03,0.013-0.045,0.018   l4.335-24.577c0.01-0.001,0.02,0,0.03-0.001c9.04-1.12,17.04-6.56,21.28-14.48c0.002-0.004,0.004-0.01,0.006-0.014   c3.016,0.201,6.117,0.334,9.354,0.334s6.337-0.133,9.354-0.334c0.002,0.004,0.004,0.01,0.006,0.014   c4.24,7.92,12.24,13.36,21.28,14.48c0.01,0.001,0.02,0,0.03,0.001l4.335,24.577c-0.015-0.005-0.03-0.013-0.045-0.018   C278.56,250.72,264.64,254.48,256,264.8z M333.6,286.4l-13.76,20.08c-2.48,3.52-6.16,5.92-10.4,6.72c-0.96,0.16-1.92,0.24-2.8,0.24   c-3.28,0-6.56-1.04-9.28-2.96l-19.84-14.16c-3.6-2.56-4.4-7.52-1.84-11.12c2.56-3.6,7.52-4.48,11.12-1.92l19.84,14.16l13.84-20.08   c2.48-3.6,7.44-4.56,11.12-2.08C335.2,277.84,336.16,282.8,333.6,286.4z M264,408v32c0,4.418-3.578,8-8,8s-8-3.582-8-8v-32   c0-4.418,3.578-8,8-8S264,403.582,264,408z M131.297,328c2.211,3.828,0.898,8.719-2.93,10.93l-27.719,16   c-1.258,0.727-2.633,1.07-3.992,1.07c-2.766,0-5.453-1.434-6.938-4c-2.211-3.828-0.898-8.719,2.93-10.93l27.719-16   C124.18,322.863,129.078,324.172,131.297,328z M422.281,352c-1.484,2.566-4.172,4-6.938,4c-1.359,0-2.734-0.344-3.992-1.07   l-27.719-16c-3.828-2.211-5.141-7.102-2.93-10.93s7.109-5.137,10.93-2.93l27.719,16C423.18,343.281,424.492,348.172,422.281,352z    M346.93,397.492c2.211,3.824,0.898,8.719-2.93,10.93c-1.258,0.727-2.633,1.07-3.992,1.07c-2.766,0-5.453-1.434-6.938-4l-8-13.855   c-2.211-3.824-0.898-8.719,2.93-10.93c3.813-2.215,8.711-0.902,10.93,2.93L346.93,397.492z M432,256c0,4.418-3.578,8-8,8h-16   c-4.422,0-8-3.582-8-8s3.578-8,8-8h16C428.422,248,432,251.582,432,256z M186.93,391.637l-8,13.855c-1.484,2.566-4.172,4-6.938,4   c-1.359,0-2.734-0.344-3.992-1.07c-3.828-2.211-5.141-7.105-2.93-10.93l8-13.855c2.211-3.832,7.102-5.145,10.93-2.93   C187.828,382.918,189.141,387.813,186.93,391.637z M104,264H88c-4.422,0-8-3.582-8-8s3.578-8,8-8h16c4.422,0,8,3.582,8,8   S108.422,264,104,264z"/>

</g>

<g id="Layer_1"/>

</svg>